<svg width="17" height="16" viewBox="0 0 17 16" fill="none" xmlns="http://www.w3.org/2000/svg">
<g id="arrow_right_line" clip-path="url(#clip0_2552_9483)">
<g id="Group">
<path id="Vector" d="M10.3047 3.75724L14.076 7.52857C14.201 7.65359 14.2712 7.82313 14.2712 7.9999C14.2712 8.17668 14.201 8.34622 14.076 8.47124L10.3047 12.2426C10.1789 12.364 10.0105 12.4312 9.83573 12.4297C9.66093 12.4282 9.49373 12.3581 9.37012 12.2344C9.24652 12.1108 9.1764 11.9436 9.17488 11.7688C9.17337 11.594 9.24056 11.4256 9.362 11.2999L11.9953 8.66657H3.16667C2.98986 8.66657 2.82029 8.59633 2.69526 8.47131C2.57024 8.34628 2.5 8.17671 2.5 7.9999C2.5 7.82309 2.57024 7.65352 2.69526 7.5285C2.82029 7.40347 2.98986 7.33324 3.16667 7.33324H11.9953L9.362 4.6999C9.29833 4.63841 9.24754 4.56484 9.2126 4.48351C9.17766 4.40217 9.15927 4.31469 9.1585 4.22617C9.15773 4.13765 9.1746 4.04986 9.20812 3.96793C9.24164 3.886 9.29114 3.81157 9.35374 3.74897C9.41633 3.68638 9.49077 3.63688 9.5727 3.60336C9.65463 3.56983 9.74241 3.55297 9.83093 3.55374C9.91945 3.55451 10.0069 3.5729 10.0883 3.60784C10.1696 3.64277 10.2432 3.69356 10.3047 3.75724Z" fill="white"/>
</g>
</g>
<defs>
<clipPath id="clip0_2552_9483">
<rect width="16" height="16" fill="white" transform="translate(0.5)"/>
</clipPath>
</defs>
</svg>
