<svg width="20" height="20" viewBox="0 0 20 20" fill="none" xmlns="http://www.w3.org/2000/svg">
<g id="Group 2612467">
<path id="Subtract" fill-rule="evenodd" clip-rule="evenodd" d="M10 20C15.5228 20 20 15.5228 20 10C20 4.47715 15.5228 0 10 0C4.47715 0 0 4.47715 0 10C0 15.5228 4.47715 20 10 20ZM6.08907 7.17169C5.79618 6.8788 5.79618 6.40392 6.08907 6.11103C6.38196 5.81813 6.85684 5.81814 7.14973 6.11103L9.97813 8.93943L12.8066 6.11097C13.0995 5.81808 13.5744 5.81808 13.8673 6.11097C14.1601 6.40386 14.1601 6.87874 13.8673 7.17163L11.0388 10.0001L13.8672 12.8285C14.1601 13.1214 14.1601 13.5963 13.8672 13.8892C13.5744 14.1821 13.0995 14.1821 12.8066 13.8892L9.97813 11.0608L7.14974 13.8891C6.85685 14.182 6.38197 14.182 6.08908 13.8891C5.79619 13.5963 5.79619 13.1214 6.08908 12.8285L8.91747 10.0001L6.08907 7.17169Z" fill="#C60000"/>
</g>
</svg>
