<svg width="122" height="122" viewBox="0 0 122 122" fill="none" xmlns="http://www.w3.org/2000/svg">
<g id="icon-ios-60">
<rect width="122" height="122" rx="61" fill="#FFDD00"/>
<g id="Group 2612427">
<path id="Union" fill-rule="evenodd" clip-rule="evenodd" d="M18.4976 46.5489C15.3924 50.7153 13.5552 55.8734 13.5552 61.4611C13.5552 74.6457 23.7843 85.4394 36.764 86.4539C36.9422 86.4845 37.1211 86.5129 37.3007 86.5392C40.3801 92.5281 46.2376 96.9802 53.4263 97.9681C60.5925 98.953 67.4121 96.2682 71.9954 91.3571C74.6042 95.514 79.2271 98.2767 84.4978 98.2767C92.6448 98.2767 99.2493 91.6722 99.2493 83.5251C99.2493 81.7772 98.9441 80.0962 98.3832 78.5356C103.083 73.0019 105.647 65.6054 104.808 57.696C104.173 51.7128 101.702 46.4306 98.0455 42.2968C97.9969 42.2037 97.9478 42.1108 97.8982 42.0183C92.983 32.8562 83.1468 27.0457 72.5249 27.429C72.1171 26.9749 71.6897 26.5378 71.2436 26.1192C68.1214 23.1887 64.0887 21.1615 59.5234 20.5341C48.6298 19.037 38.5266 26.0205 35.878 36.4307L34.9581 36.6745C32.7092 37.0134 30.5574 37.6479 28.5442 38.537C24.3905 40.1867 20.9327 43.0154 18.4976 46.5489Z" fill="white"/>
<path id="Union_2" fill-rule="evenodd" clip-rule="evenodd" d="M41.7286 39.4692C42.9607 31.3481 50.495 25.6978 58.6595 26.8198C62.7718 27.3849 66.262 29.5563 68.5928 32.6219L69.6658 34.0333L71.4302 33.8589C82.858 32.7291 93.4549 41.0216 94.7105 52.8616C95.2828 58.2574 93.8039 63.3402 90.9432 67.3968C88.2907 64.8414 84.6837 63.2699 80.7096 63.2699C72.5626 63.2699 65.9581 69.8744 65.9581 78.0215C65.9581 78.0546 65.9582 78.0877 65.9584 78.1208C63.1245 83.6644 57.0097 87.0732 50.502 86.1789C44.9615 85.4175 40.5376 81.7325 38.5813 76.8801L37.8294 75.015L35.8219 74.8992C28.1122 74.4542 21.8354 68.4906 21.0184 60.786C20.1961 53.0324 25.1506 45.8374 32.6876 43.84L41.4164 41.5268L41.7286 39.4692ZM18.4976 46.5489C15.3924 50.7153 13.5552 55.8734 13.5552 61.4611C13.5552 74.6457 23.7843 85.4394 36.764 86.4539C36.9422 86.4845 37.1211 86.5129 37.3007 86.5392C40.3801 92.5281 46.2376 96.9802 53.4263 97.9681C60.5925 98.953 67.4121 96.2682 71.9954 91.3571C74.6042 95.514 79.2271 98.2767 84.4978 98.2767C92.6448 98.2767 99.2493 91.6722 99.2493 83.5251C99.2493 81.7772 98.9441 80.0962 98.3832 78.5356C103.083 73.0019 105.647 65.6054 104.808 57.696C104.173 51.7128 101.702 46.4306 98.0455 42.2968C97.9969 42.2037 97.9478 42.1108 97.8982 42.0183C92.983 32.8562 83.1468 27.0457 72.5249 27.429C72.1171 26.9749 71.6897 26.5378 71.2436 26.1192C68.1214 23.1887 64.0887 21.1615 59.5234 20.5341C48.6298 19.037 38.5266 26.0205 35.878 36.4307L34.9581 36.6745C32.7092 37.0134 30.5574 37.6479 28.5442 38.537C24.3905 40.1867 20.9327 43.0154 18.4976 46.5489ZM89.3276 77.9884C89.3276 82.707 85.5025 86.5321 80.784 86.5321C76.0654 86.5321 72.2403 82.707 72.2403 77.9884C72.2403 73.2699 76.0654 69.4448 80.784 69.4448C85.5025 69.4448 89.3276 73.2699 89.3276 77.9884ZM62.067 46.3087C63.0102 44.8322 64.9718 44.3999 66.4483 45.3431C67.9248 46.2864 68.3571 48.2479 67.4139 49.7244L66.0012 51.9358L68.2139 53.3494C69.6904 54.2926 70.1227 56.2542 69.1795 57.7306C68.2363 59.2071 66.2747 59.6395 64.7982 58.6962L59.9859 55.622C59.2297 55.1389 58.7474 54.3888 58.5835 53.5734C58.3877 52.7633 58.5095 51.8776 58.9936 51.1198L62.067 46.3087ZM43.4229 49.7655C41.7119 50.1426 40.6305 51.8353 41.0076 53.5463L42.9061 61.2414C43.2831 62.9524 44.9759 64.0338 46.6869 63.6567C48.3979 63.2796 49.4792 61.5869 49.1021 59.8759L47.2037 52.1808C46.8266 50.4698 45.1339 49.3884 43.4229 49.7655Z" fill="#1E1E1E"/>
</g>
</g>
</svg>
