<svg width="41" height="40" viewBox="0 0 41 40" fill="none" xmlns="http://www.w3.org/2000/svg">
<g id="Logo">
<path id="Ellipse 533" d="M35.833 20.0002C36.5694 20.0002 37.1719 20.5981 37.113 21.3321C36.8864 24.1591 35.9413 26.8894 34.3575 29.2597C32.5261 32.0005 29.9232 34.1367 26.8777 35.3982C23.8323 36.6596 20.4812 36.9897 17.2482 36.3466C14.0152 35.7035 11.0454 34.1161 8.71456 31.7853C6.38369 29.4544 4.79634 26.4847 4.15325 23.2517C3.51017 20.0187 3.84022 16.6675 5.10168 13.6221C6.36314 10.5767 8.49935 7.97369 11.2402 6.14234C13.6104 4.55858 16.3408 3.61342 19.1677 3.3868C19.9017 3.32795 20.4997 3.93045 20.4997 4.66683V6.66683C20.4997 7.40321 19.9009 7.9925 19.1691 8.07415C17.2664 8.28643 15.4353 8.95177 13.8328 10.0225C11.8594 11.3411 10.3214 13.2152 9.41312 15.408C8.50487 17.6007 8.26723 20.0135 8.73025 22.3412C9.19327 24.669 10.3362 26.8072 12.0144 28.4854C13.6926 30.1637 15.8308 31.3066 18.1586 31.7696C20.4864 32.2326 22.8992 31.995 25.0919 31.0867C27.2846 30.1785 29.1587 28.6404 30.4773 26.667C31.5481 25.0645 32.2134 23.2334 32.4257 21.3308C32.5073 20.5989 33.0966 20.0002 33.833 20.0002H35.833Z" fill="url(#paint0_angular_2552_9472)"/>
<path id="Ellipse 532" d="M35.9545 15.8591C36.3101 15.7638 36.5225 15.3977 36.4131 15.0462C35.699 12.7523 34.4965 10.6373 32.8854 8.84799C31.2744 7.05872 29.2966 5.64175 27.0899 4.69179C26.7518 4.5462 26.3655 4.71914 26.2336 5.06288L26.1141 5.37407C25.9822 5.7178 26.1545 6.10203 26.4921 6.24912C28.4534 7.10384 30.2118 8.36941 31.6468 9.9632C33.0819 11.557 34.1567 13.438 34.8018 15.478C34.9128 15.829 35.2769 16.0406 35.6325 15.9453L35.9545 15.8591Z" fill="white"/>
<path id="Subtract" fill-rule="evenodd" clip-rule="evenodd" d="M11.1683 19.9998C11.1683 25.1545 15.3469 29.3332 20.5016 29.3332C25.6563 29.3332 29.8349 25.1545 29.8349 19.9998C29.8349 14.8452 25.6563 10.6665 20.5016 10.6665C15.3469 10.6665 11.1683 14.8452 11.1683 19.9998ZM23.1992 14.7941C23.6501 15.7887 24.4187 16.6156 25.3911 17.1523C25.5363 17.2317 25.5363 17.4346 25.3911 17.514C24.4184 18.0512 23.6498 18.8787 23.1992 19.874C23.182 19.9115 23.154 19.9433 23.1185 19.9656C23.0831 19.988 23.0418 19.9998 22.9996 19.9998C22.9573 19.9998 22.916 19.988 22.8806 19.9656C22.8452 19.9433 22.8171 19.9115 22.7999 19.874C22.3491 18.8791 21.5805 18.0518 20.6081 17.5149C20.5752 17.4967 20.5479 17.4704 20.529 17.4386C20.51 17.4069 20.5 17.3708 20.5 17.3341C20.5 17.2973 20.51 17.2612 20.529 17.2295C20.5479 17.1977 20.5752 17.1714 20.6081 17.1532C21.5808 16.6158 22.3495 15.7879 22.7999 14.7923C22.8171 14.7549 22.8452 14.723 22.8806 14.7007C22.916 14.6784 22.9573 14.6665 22.9996 14.6665C23.0418 14.6665 23.0831 14.6784 23.1185 14.7007C23.154 14.723 23.182 14.7549 23.1992 14.7923V14.7941Z" fill="white"/>
</g>
<defs>
<radialGradient id="paint0_angular_2552_9472" cx="0" cy="0" r="1" gradientUnits="userSpaceOnUse" gradientTransform="translate(20.4997 20.0002) rotate(90) scale(16.6667)">
<stop offset="0.139624" stop-color="white"/>
<stop offset="0.428596" stop-color="#999999"/>
<stop offset="0.86519" stop-color="#D8D8D8"/>
</radialGradient>
</defs>
</svg>
