<svg width="20" height="20" viewBox="0 0 20 20" fill="none" xmlns="http://www.w3.org/2000/svg">
<g id="Group 2612466">
<path id="Subtract" fill-rule="evenodd" clip-rule="evenodd" d="M10 20C15.5228 20 20 15.5228 20 10C20 4.47715 15.5228 0 10 0C4.47715 0 0 4.47715 0 10C0 15.5228 4.47715 20 10 20ZM13.1394 7.52359C13.4718 7.18908 14.0193 7.18908 14.3539 7.52359C14.6884 7.85811 14.6884 8.40569 14.356 8.74021L9.5726 13.5236C9.24022 13.8581 8.69263 13.8581 8.35812 13.5236L5.70542 10.8709C5.3709 10.5385 5.3709 9.99092 5.70542 9.65641C6.0378 9.32189 6.58539 9.32189 6.91991 9.65641L8.96323 11.6997L13.1394 7.52359Z" fill="#74C041"/>
</g>
</svg>
